HIERARCHY
ROOT Hips
{
	OFFSET 0.00000 0.00000 0.00000
	CHANNELS 6 Xposition Yposition Zposition Zrotation Yrotation Xrotation 
	JOINT LHipJoint
	{
		OFFSET 0 0 0
		CHANNELS 3 Zrotation Yrotation Xrotation
		JOINT LeftUpLeg
		{
			OFFSET 1.84395 -1.68683 0.74144
			CHANNELS 3 Zrotation Yrotation Xrotation
			JOINT LeftLeg
			{
				OFFSET 2.27037 -6.23779 0.00000
				CHANNELS 3 Zrotation Yrotation Xrotation
				JOINT LeftFoot
				{
					OFFSET 2.56918 -7.05877 0.00000
					CHANNELS 3 Zrotation Yrotation Xrotation
					JOINT LeftToeBase
					{
						OFFSET 0.22276 -0.61202 1.71784
						CHANNELS 3 Zrotation Yrotation Xrotation
						End Site
						{
							OFFSET 0.00000 -0.00000 0.91613
						}
					}
				}
			}
		}
	}
	JOINT RHipJoint
	{
		OFFSET 0 0 0
		CHANNELS 3 Zrotation Yrotation Xrotation
		JOINT RightUpLeg
		{
			OFFSET -1.76833 -1.68684 0.74144
			CHANNELS 3 Zrotation Yrotation Xrotation
			JOINT RightLeg
			{
				OFFSET -2.49360 -6.85110 0.00000
				CHANNELS 3 Zrotation Yrotation Xrotation
				JOINT RightFoot
				{
					OFFSET -2.55538 -7.02085 0.00000
					CHANNELS 3 Zrotation Yrotation Xrotation
					JOINT RightToeBase
					{
						OFFSET -0.21516 -0.59115 1.68050
						CHANNELS 3 Zrotation Yrotation Xrotation
						End Site
						{
							OFFSET -0.00000 -0.00000 0.89604
						}
					}
				}
			}
		}
	}
	JOINT LowerBack
	{
		OFFSET 0 0 0
		CHANNELS 3 Zrotation Yrotation Xrotation
		JOINT Spine
		{
			OFFSET 0.06382 1.72312 -0.19613
			CHANNELS 3 Zrotation Yrotation Xrotation
			JOINT Spine1
			{
				OFFSET -0.00055 1.73507 0.23859
				CHANNELS 3 Zrotation Yrotation Xrotation
				JOINT Neck
				{
					OFFSET 0 0 0
					CHANNELS 3 Zrotation Yrotation Xrotation
					JOINT Neck1
					{
						OFFSET 0.03638 1.65562 0.09633
						CHANNELS 3 Zrotation Yrotation Xrotation
						JOINT Head
						{
							OFFSET 0.06388 1.62807 -0.32386
							CHANNELS 3 Zrotation Yrotation Xrotation
							End Site
							{
								OFFSET 0.00995 1.67644 -0.12021
							}
						}
					}
				}
				JOINT LeftShoulder
				{
					OFFSET 0 0 0
					CHANNELS 3 Zrotation Yrotation Xrotation
					JOINT LeftArm
					{
						OFFSET 3.09648 1.42991 0.28122
						CHANNELS 3 Zrotation Yrotation Xrotation
						JOINT LeftForeArm
						{
							OFFSET 5.11878 -0.00000 -0.00000
							CHANNELS 3 Zrotation Yrotation Xrotation
							JOINT LeftHand
							{
								OFFSET 3.59971 -0.00000 0.00000
								CHANNELS 3 Zrotation Yrotation Xrotation
								JOINT LeftFingerBase
								{
									OFFSET 0 0 0
									CHANNELS 3 Zrotation Yrotation Xrotation
									JOINT LeftHandIndex1
									{
										OFFSET 0.62877 -0.00000 0.00000
										CHANNELS 3 Zrotation Yrotation Xrotation
										End Site
										{
											OFFSET 0.50693 -0.00000 0.00000
										}
									}
								}
								JOINT LThumb
								{
									OFFSET 0 0 0
									CHANNELS 3 Zrotation Yrotation Xrotation
									End Site
									{
										OFFSET 0.51467 -0.00000 0.51467
									}
								}
							}
						}
					}
				}
				JOINT RightShoulder
				{
					OFFSET 0 0 0
					CHANNELS 3 Zrotation Yrotation Xrotation
					JOINT RightArm
					{
						OFFSET -3.33565 1.14597 0.05047
						CHANNELS 3 Zrotation Yrotation Xrotation
						JOINT RightForeArm
						{
							OFFSET -5.49020 -0.00000 0.00000
							CHANNELS 3 Zrotation Yrotation Xrotation
							JOINT RightHand
							{
								OFFSET -3.20659 -0.00000 -0.00000
								CHANNELS 3 Zrotation Yrotation Xrotation
								JOINT RightFingerBase
								{
									OFFSET 0 0 0
									CHANNELS 3 Zrotation Yrotation Xrotation
									JOINT RightHandIndex1
									{
										OFFSET -0.69188 -0.00000 0.00000
										CHANNELS 3 Zrotation Yrotation Xrotation
										End Site
										{
											OFFSET -0.55781 -0.00000 0.00000
										}
									}
								}
								JOINT RThumb
								{
									OFFSET 0 0 0
									CHANNELS 3 Zrotation Yrotation Xrotation
									End Site
									{
										OFFSET -0.56633 -0.00000 0.56633
									}
								}
							}
						}
					}
				}
			}
		}
	}
}
MOTION
Frames: 9
Frame Time: .0083333
-0.2536 17.6329 8.3499 -6.4341 -23.9375 29.8956 0.0000 0.0000 0.0000 -10.7789 -0.0852 -7.1973 0.6267 -5.0658 -14.0964 2.6142 8.8294 -34.6391 8.0330 16.1434 52.6813 0.0000 0.0000 0.0000 3.9433 43.8273 -22.3347 -0.0289 -1.0978 3.0180 1.0696 -18.1624 -9.9045 -0.2768 3.3842 -9.3504 8.5343 -5.4353 8.4932 7.0941 -5.5724 -5.9298 4.0391 -3.0283 -11.3747 4.9468 1.8114 -22.7310 -9.7887 2.5674 11.4249 -3.7457 0.4739 7.4171 -0.0000 0.0000 0.0000 -158.1145 -67.9047 117.2999 25.5416 -36.7525 -8.6119 -0.0000 0.0000 -43.3702 58.0324 -4.7150 -7.5033 -7.1250 0.0000 -0.0000 22.2865 21.2894 -13.7288 -0.0000 0.0000 0.0000 136.4054 82.6010 86.9328 -24.3434 35.5253 -7.9052 0.0000 -0.0000 -7.6359 36.3624 -32.3406 -21.4974 7.1250 -0.0000 -0.0000 65.5363 -51.2016 -15.7516
-0.2921 17.6310 8.3379 -6.5105 -23.8705 29.8836 0.0000 0.0000 0.0000 -10.5912 -0.2009 -7.2824 0.6031 -4.9709 -13.8257 2.6044 9.0606 -34.7210 7.9585 16.0887 52.4131 0.0000 0.0000 0.0000 4.3480 43.6486 -22.1813 -0.0262 -1.0440 2.8698 1.0444 -17.9573 -9.7910 -0.2665 3.3210 -9.1737 8.5328 -5.2594 8.3999 6.8799 -5.3699 -5.8642 3.7446 -2.9393 -11.2608 4.6493 1.6382 -22.6979 -9.3102 2.3536 11.5389 -3.5634 0.4053 7.4191 0.0000 -0.0000 0.0000 -157.0937 -67.7169 115.8975 25.9870 -37.1958 -8.8798 -0.0000 0.0000 -41.8572 58.2456 -4.3870 -7.0455 -7.1250 0.0000 -0.0000 22.5421 21.8075 -13.6218 0.0000 -0.0000 0.0000 133.0275 82.7842 85.1695 -24.5892 35.7811 -8.0485 0.0000 -0.0000 -9.9029 38.1536 -32.2509 -22.7446 7.1250 -0.0000 -0.0000 66.5594 -50.8243 -15.4495
-0.3287 17.6249 8.3209 -6.7074 -23.9301 30.0355 0.0000 0.0000 0.0000 -10.3252 -0.1663 -7.5334 0.5766 -4.8625 -13.5169 2.5889 9.2993 -34.7786 7.8865 16.0351 52.1527 0.0000 0.0000 0.0000 4.7466 43.4010 -22.3586 -0.0261 -1.0436 2.8687 0.9789 -17.4241 -9.5867 -0.2394 3.1489 -8.6934 8.4458 -5.0164 8.3411 6.7476 -5.0691 -5.9123 3.5856 -2.7956 -11.2776 4.5966 1.5248 -22.5396 -9.1854 2.2075 11.6353 -3.5313 0.3485 7.4109 -0.0000 0.0000 0.0000 -155.7853 -67.6136 114.0425 26.4388 -37.6387 -9.1543 -0.0000 0.0000 -41.1932 57.8880 -4.7469 -7.5117 -7.1250 0.0000 -0.0000 22.1833 21.2671 -13.6667 -0.0000 0.0000 0.0000 122.2100 83.1568 78.5318 -25.3429 36.5524 -8.4933 0.0000 -0.0000 -14.9523 37.3998 -32.2478 -22.1931 7.1250 -0.0000 -0.0000 66.0891 -50.9581 -15.5058
-0.3636 17.6198 8.3036 -6.9059 -23.9839 30.1249 0.0000 0.0000 0.0000 -10.0463 -0.0993 -7.6665 0.5585 -4.7868 -13.3015 2.5775 9.4935 -34.8330 7.8333 15.9953 51.9601 0.0000 0.0000 0.0000 5.2348 43.0781 -22.4733 -0.0267 -1.0551 2.9004 0.9053 -16.8040 -9.3685 -0.2230 3.0397 -8.3893 8.3128 -4.7997 8.2369 6.6407 -4.8211 -5.8639 3.4736 -2.6713 -11.1500 4.6894 1.5091 -22.5400 -9.1332 2.1617 11.7957 -3.5373 0.3346 7.4601 -0.0000 0.0000 0.0000 -154.6353 -67.7898 112.3719 26.8657 -38.0508 -9.4162 -0.0000 0.0000 -41.1329 57.2751 -4.7058 -7.2755 -7.1250 0.0000 -0.0000 21.8072 21.4713 -13.2860 -0.0000 0.0000 0.0000 131.3802 81.8982 84.3302 -25.4849 36.6955 -8.5780 0.0000 -0.0000 -12.4697 38.5633 -31.6557 -22.7046 7.1250 -0.0000 -0.0000 66.1395 -50.3945 -14.2844
-0.3934 17.6221 8.2926 -7.0063 -23.8520 29.8686 0.0000 0.0000 0.0000 -9.8517 -0.2076 -7.4177 0.5452 -4.7307 -13.1420 2.5577 9.7766 -34.8978 7.7526 15.9343 51.6667 0.0000 0.0000 0.0000 5.9901 42.6492 -22.0102 -0.0252 -1.0245 2.8161 0.8519 -16.3401 -9.2247 -0.2205 3.0227 -8.3418 8.3253 -4.6612 8.3822 6.4571 -4.6377 -5.7168 3.2298 -2.5873 -11.0828 4.5964 1.4254 -22.7966 -8.8467 2.0467 12.1694 -3.4478 0.2938 7.6111 0.0000 -0.0000 0.0000 -153.6605 -68.0880 111.1043 27.1585 -38.3299 -9.5973 -0.0000 0.0000 -41.0543 56.7088 -4.3641 -6.6100 -7.1250 0.0000 -0.0000 21.5618 22.1617 -12.7427 0.0000 -0.0000 0.0000 134.2789 81.0626 86.0338 -25.9138 37.1235 -8.8356 0.0000 -0.0000 -11.7687 37.6171 -32.0317 -22.2301 7.1250 -0.0000 -0.0000 65.9828 -50.7895 -15.0843
-0.4187 17.6200 8.2755 -7.3680 -24.0291 29.9304 0.0000 0.0000 0.0000 -9.5123 0.0897 -7.3656 0.5419 -4.7165 -13.1017 2.5740 9.8123 -35.0078 7.7593 15.9393 51.6910 0.0000 0.0000 0.0000 6.8345 41.9586 -22.1695 -0.0281 -1.0824 2.9756 0.7183 -15.0918 -8.7457 -0.2463 3.1936 -8.8183 8.3649 -4.3469 8.5246 6.2759 -4.2052 -5.7007 2.9393 -2.3894 -11.1585 4.4062 1.2938 -22.9368 -8.5402 1.8940 12.5229 -3.3392 0.2358 7.7337 0.0000 -0.0000 0.0000 -152.6501 -68.3409 109.8557 27.2302 -38.3978 -9.6417 -0.0000 0.0000 -40.6850 56.3122 -3.7678 -5.6299 -7.1250 0.0000 -0.0000 21.5098 23.2276 -12.1345 0.0000 -0.0000 0.0000 133.0656 80.3416 84.7315 -26.4912 37.6896 -9.1863 0.0000 -0.0000 -12.2521 35.8657 -32.2578 -21.1001 7.1250 -0.0000 -0.0000 65.1255 -51.2425 -15.6322
-0.4568 17.6244 8.2691 -7.3760 -23.7259 29.4150 0.0000 0.0000 0.0000 -9.2421 -0.0801 -6.7119 0.5485 -4.7446 -13.1814 2.5689 9.9903 -35.0899 7.7245 15.9128 51.5640 0.0000 0.0000 0.0000 7.5376 42.2525 -21.0342 -0.0239 -0.9977 2.7424 0.7765 -15.6449 -8.9295 -0.2513 3.2253 -8.9067 8.2804 -4.2360 8.8504 6.0520 -4.0472 -5.6071 2.7308 -2.3126 -11.2524 4.2887 1.1254 -22.8868 -8.3048 1.6752 12.7222 -3.2711 0.1493 7.7717 0.0000 -0.0000 0.0000 -151.8023 -68.5628 108.6237 27.0825 -38.2578 -9.5502 -0.0000 0.0000 -40.1147 55.4421 -2.3810 -3.4517 -7.1250 0.0000 -0.0000 21.4075 25.6364 -10.7671 0.0000 -0.0000 0.0000 130.0047 79.6740 82.2591 -27.3204 38.4830 -9.6978 0.0000 -0.0000 -13.4259 36.1363 -33.5936 -21.9991 7.1250 -0.0000 -0.0000 66.7959 -51.9814 -18.0760
-0.4747 17.6170 8.2568 -7.4274 -23.4513 29.3930 0.0000 0.0000 0.0000 -9.0194 -0.3788 -6.6861 0.5443 -4.7267 -13.1307 2.5739 10.1416 -35.2104 7.7034 15.8967 51.4872 0.0000 0.0000 0.0000 7.8213 41.9414 -20.9881 -0.0221 -0.9601 2.6391 0.7639 -15.5150 -8.8132 -0.2522 3.2316 -8.9242 8.4429 -4.0726 8.7687 5.8004 -3.8328 -5.6415 2.3207 -2.2332 -11.2669 4.2122 0.9469 -22.8408 -8.0883 1.4310 12.9045 -3.2193 0.0513 7.8044 0.0000 -0.0000 0.0000 -151.1622 -68.8720 107.6117 26.8689 -38.0539 -9.4182 -0.0000 0.0000 -40.2062 53.9594 -0.7352 -1.0103 -7.1250 0.0000 -0.0000 20.9278 28.4127 -9.0118 0.0000 -0.0000 0.0000 127.4045 79.1086 80.5149 -28.2083 39.3073 -10.2554 0.0000 -0.0000 -14.7274 35.2763 -35.5487 -22.3569 7.1250 -0.0000 -0.0000 68.4844 -53.2499 -21.7330
-0.4950 17.6127 8.2430 -7.5712 -23.3392 29.3636 0.0000 0.0000 0.0000 -8.7522 -0.4291 -6.5392 0.5502 -4.7518 -13.2019 2.5895 10.2124 -35.3383 7.7245 15.9128 51.5640 0.0000 0.0000 0.0000 8.2771 41.6626 -20.8480 -0.0202 -0.9171 2.5209 0.7345 -15.2256 -8.6626 -0.2402 3.1543 -8.7085 8.4353 -3.8632 8.7796 5.5805 -3.5687 -5.6328 2.0318 -2.1150 -11.2666 4.2563 0.8516 -22.8341 -7.9034 1.2648 13.0641 -3.1878 -0.0069 7.8429 -0.0000 0.0000 0.0000 -150.5990 -69.3309 106.8843 26.6487 -37.8421 -9.2828 -0.0000 0.0000 -41.5001 52.4778 1.4170 1.8443 -7.1250 0.0000 -0.0000 20.5428 31.8085 -7.0321 -0.0000 0.0000 0.0000 112.6245 79.4201 72.4066 -30.1434 41.0160 -11.5036 0.0000 -0.0000 -21.2043 28.8437 -37.8579 -18.6751 7.1250 -0.0000 -0.0000 66.6205 -55.8656 -25.4876
